<?xml version="1.0" standalone="no"?><!DOCTYPE svg PUBLIC "-//W3C//DTD SVG 1.1//EN" "http://www.w3.org/Graphics/SVG/1.1/DTD/svg11.dtd"><svg t="1581562971563" class="icon" viewBox="0 0 1024 1024" version="1.1" xmlns="http://www.w3.org/2000/svg" p-id="29137" xmlns:xlink="http://www.w3.org/1999/xlink" width="32" height="32"><defs><style type="text/css"></style></defs><path d="M947.2 825.6H88V188.8c0-11.2-8.8-20-20-20S48 177.6 48 188.8v656.8c0 11.2 8.8 20 20 20h879.2c11.2 0 20-8.8 20-20s-8.8-20-20-20z" p-id="29138" fill="#1296db"></path><path d="M776 672c0 44 35.2 79.2 79.2 79.2s79.2-35.2 79.2-79.2-35.2-79.2-79.2-79.2S776 628 776 672z m79.2-39.2c21.6 0 39.2 17.6 39.2 39.2s-17.6 39.2-39.2 39.2-39.2-17.6-39.2-39.2 17.6-39.2 39.2-39.2zM736.8 436c44 0 79.2-35.2 79.2-79.2s-35.2-79.2-79.2-79.2-79.2 35.2-79.2 79.2 35.2 79.2 79.2 79.2z m0-117.6c21.6 0 39.2 17.6 39.2 39.2s-17.6 39.2-39.2 39.2-39.2-17.6-39.2-39.2 17.6-39.2 39.2-39.2zM520 633.6c76 0 138.4-61.6 138.4-138.4S596 356.8 520 356.8s-138.4 61.6-138.4 138.4c0 76 62.4 138.4 138.4 138.4z m0-236.8c54.4 0 98.4 44 98.4 98.4S574.4 593.6 520 593.6c-54.4 0-98.4-44-98.4-98.4 0-54.4 44-98.4 98.4-98.4zM323.2 357.6c54.4 0 98.4-44 98.4-99.2S377.6 160 322.4 160C268 160 224 204 224 258.4c0 55.2 44 99.2 99.2 99.2z m0-157.6c32.8 0 58.4 26.4 58.4 59.2s-26.4 58.4-59.2 58.4c-32.8 0-58.4-26.4-58.4-58.4 0-32.8 26.4-59.2 59.2-59.2zM244 751.2c54.4 0 99.2-44 99.2-98.4s-44-98.4-99.2-98.4-99.2 44-99.2 98.4c0.8 53.6 44.8 98.4 99.2 98.4z m0-157.6c32.8 0 59.2 26.4 59.2 58.4 0 32.8-26.4 59.2-59.2 59.2s-59.2-26.4-59.2-59.2c0.8-32 27.2-58.4 59.2-58.4z" p-id="29139" fill="#1296db"></path></svg>