<?xml version="1.0" standalone="no"?><!DOCTYPE svg PUBLIC "-//W3C//DTD SVG 1.1//EN" "http://www.w3.org/Graphics/SVG/1.1/DTD/svg11.dtd"><svg t="1581563003402" class="icon" viewBox="0 0 1024 1024" version="1.1" xmlns="http://www.w3.org/2000/svg" p-id="29949" xmlns:xlink="http://www.w3.org/1999/xlink" width="32" height="32"><defs><style type="text/css"></style></defs><path d="M936 422.4v-4.8-1.6-1.6c0-1.6-1.6-4.8-3.2-6.4l-4.8-4.8L526.4 112c-1.6-1.6-3.2-3.2-6.4-3.2h-1.6c-1.6 0-4.8-1.6-6.4-1.6-1.6 0-4.8 0-6.4 1.6h-1.6c-1.6 0-3.2 1.6-6.4 3.2l-400 291.2-4.8 4.8c-1.6 1.6-1.6 3.2-3.2 6.4v8c0 1.6 0 4.8 1.6 6.4l150.4 472c0 1.6 1.6 4.8 3.2 6.4l4.8 4.8h1.6c1.6 1.6 3.2 1.6 4.8 3.2 1.6 0 4.8 1.6 6.4 1.6h497.6c3.2 0 4.8 0 8-1.6l3.2-1.6 3.2-1.6 1.6-1.6 4.8-4.8c1.6-1.6 1.6-3.2 3.2-6.4l152-470.4c-1.6-3.2-1.6-4.8 0-6.4zM752 838.4l-60.8-92.8 108.8-272 76.8-17.6L752 838.4z m-604.8-384l78.4 17.6 139.2 220.8-94.4 144-123.2-382.4z m388.8-94.4l172.8 83.2-172.8 38.4v-121.6z m-48 121.6l-174.4-38.4 174.4-83.2v121.6z m-14.4 46.4l-78.4 120-102.4-161.6L473.6 528z m38.4 27.2l100.8 156.8-179.2-35.2 78.4-121.6z m38.4-27.2l192-43.2-83.2 211.2L550.4 528z m235.2-102.4l-249.6-120v-128l318.4 232-68.8 16z m-297.6-118.4l-249.6 118.4-68.8-16 318.4-230.4v128zM406.4 720l243.2 48 65.6 99.2H308.8l97.6-147.2z" p-id="29950" fill="#1296db"></path></svg>