<?xml version="1.0" standalone="no"?><!DOCTYPE svg PUBLIC "-//W3C//DTD SVG 1.1//EN" "http://www.w3.org/Graphics/SVG/1.1/DTD/svg11.dtd"><svg t="1581562943960" class="icon" viewBox="0 0 1025 1024" version="1.1" xmlns="http://www.w3.org/2000/svg" p-id="28133" xmlns:xlink="http://www.w3.org/1999/xlink" width="32.03125" height="32"><defs><style type="text/css"></style></defs><path d="M906.801727 658.162544H716.665881c-7.312917 0-14.625834 7.312917-14.625834 14.625834-51.19042 95.067923-160.884177 153.57126-285.203769 124.319592-95.067923-21.938751-168.197095-102.38084-190.135846-197.448763-29.251669-138.945426 65.816254-270.577935 197.448763-299.829604 7.312917 0 14.625834-14.625834 14.625834-21.938751V102.38084c0-14.625834-14.625834-29.251669-21.938751-21.938751C160.884177 109.693757-29.251669 343.707106 7.312917 614.285041c29.251669 204.76168 190.135846 365.645858 387.584609 402.210443 248.639183 43.877503 468.026698-109.693757 541.15587-329.081272 0-14.625834-14.625834-29.251669-29.251669-29.251668z m36.564586-438.775029c-87.755006-138.945426-248.639183-219.387515-416.836278-219.387515-7.312917 0-14.625834 7.312917-14.625834 29.251669v175.510011c0 7.312917 21.938751 14.625834 36.564586 14.625835C687.414212 219.387515 804.420887 336.394189 804.420887 475.339615c0 29.251669-7.312917 65.816254-14.625834 95.067923-7.312917 7.312917 0 14.625834 7.312917 14.625834h197.448763c7.312917 0 21.938751-7.312917 21.938751-14.625834 21.938751-109.693757 7.312917-226.700432-73.129171-351.020023z" p-id="28134" fill="#1296db"></path></svg>