<?xml version="1.0" standalone="no"?><!DOCTYPE svg PUBLIC "-//W3C//DTD SVG 1.1//EN" "http://www.w3.org/Graphics/SVG/1.1/DTD/svg11.dtd"><svg t="1581562961668" class="icon" viewBox="0 0 1024 1024" version="1.1" xmlns="http://www.w3.org/2000/svg" p-id="28981" xmlns:xlink="http://www.w3.org/1999/xlink" width="32" height="32"><defs><style type="text/css"></style></defs><path d="M987.036558 1024l-951.07122-0.999024c-19.780683 0-35.864976-15.98439-35.964878-35.765074v-951.071219C-0.099442 16.284098 15.98485 0.099902 35.765533 0h0.199805c19.780683 0 35.864976 15.98439 35.964878 35.765073l-0.199805 915.306147 915.306147 0.999024c19.880585 0 35.964878 16.084293 35.964878 35.964878s-16.084293 35.964878-35.964878 35.964878z" fill="#1296db" p-id="28982"></path><path d="M744.273631 819.99922c-44.25678 0-83.018927-38.762146-83.018927-83.018927s38.762146-83.018927 83.018927-83.018927 83.018927 38.762146 83.018927 83.018927c0.099902 44.25678-38.662244 83.018927-83.018927 83.018927zM412.098021 543.169561c-44.25678 0-83.018927-38.762146-83.018927-83.018927s38.762146-83.018927 83.018927-83.018927 83.018927 38.762146 83.018927 83.018927-38.762146 83.018927-83.018927 83.018927zM661.254704 321.685854c-33.16761 0-55.345951-22.178341-55.345951-55.345952 0-33.267512 22.178341-55.345951 55.345951-55.345951 33.267512 0 55.345951 22.178341 55.345951 55.345951s-22.078439 55.345951-55.345951 55.345952zM882.738411 487.82361c-33.267512 0-55.345951-22.178341-55.345951-55.345951s22.178341-55.345951 55.345951-55.345952 55.345951 22.178341 55.345951 55.345952-22.178341 55.345951-55.345951 55.345951zM218.287289 377.031805c-33.267512 0-55.345951-22.178341-55.345951-55.345951s22.178341-55.345951 55.345951-55.345952 55.345951 22.178341 55.345951 55.345952c0.099902 33.267512-22.078439 55.345951-55.345951 55.345951zM495.116948 764.653268c-33.267512 0-55.345951-22.178341-55.345951-55.345951s22.178341-55.345951 55.345951-55.345951 55.345951 22.178341 55.345951 55.345951c0.099902 33.16761-22.078439 55.345951-55.345951 55.345951zM661.254704 543.169561c-33.16761 0-55.345951-22.178341-55.345951-55.345951 0-33.267512 22.178341-55.345951 55.345951-55.345951 33.267512 0 55.345951 22.178341 55.345951 55.345951s-22.078439 55.345951-55.345951 55.345951zM273.733143 819.99922c-33.16761 0-55.345951-22.178341-55.345951-55.345952s22.178341-55.345951 55.345951-55.345951c33.267512 0 55.345951 22.178341 55.345951 55.345951s-22.178341 55.345951-55.345951 55.345952z" fill="#1296db" p-id="28983"></path></svg>